<?xml version="1.0" encoding="UTF-8"?>
<!DOCTYPE svg PUBLIC "-//W3C//DTD SVG 1.1//EN" "http://www.w3.org/Graphics/SVG/1.1/DTD/svg11.dtd">
<svg xmlns="http://www.w3.org/2000/svg" version="1.1" width="512px" height="512px" style="shape-rendering:geometricPrecision; text-rendering:geometricPrecision; image-rendering:optimizeQuality; fill-rule:evenodd; clip-rule:evenodd" xmlns:xlink="http://www.w3.org/1999/xlink">
<g><path style="opacity:1" fill="#715b81" d="M 360.5,-0.5 C 371.167,-0.5 381.833,-0.5 392.5,-0.5C 450.419,8.90765 488.585,41.5743 507,97.5C 508.731,104.59 510.231,111.59 511.5,118.5C 511.5,129.167 511.5,139.833 511.5,150.5C 507.941,176.956 497.775,200.623 481,221.5C 447.443,255.725 413.276,289.225 378.5,322C 376.039,324.232 375.039,323.566 375.5,320C 378.852,295.559 376.852,271.559 369.5,248C 372.656,243.677 376.323,239.844 380.5,236.5C 380.435,236.938 380.601,237.272 381,237.5C 388.095,230.911 394.595,223.911 400.5,216.5C 400.5,215.833 400.833,215.5 401.5,215.5C 410.468,208.053 419.302,199.72 428,190.5C 428.464,189.906 428.631,189.239 428.5,188.5C 453.64,160.124 457.473,129.124 440,95.5C 419.275,65.588 391.109,54.7547 355.5,63C 344.771,66.5284 335.105,71.8617 326.5,79C 298.667,106.833 270.833,134.667 243,162.5C 221.038,189.288 217.705,218.288 233,249.5C 238.953,257.788 245.286,265.788 252,273.5C 263.77,297.482 259.604,318.149 239.5,335.5C 183.406,305.324 158.239,258.324 164,194.5C 168.295,168.92 178.295,145.92 194,125.5C 227.194,91.972 260.694,58.8053 294.5,26C 314.325,11.5625 336.325,2.72917 360.5,-0.5 Z"/></g>
<g><path style="opacity:1" fill="#755e84" d="M 187.5,8.5 C 196.822,6.25106 203.655,9.25106 208,17.5C 211.309,29.0677 214.142,40.7344 216.5,52.5C 214.781,64.7088 207.781,69.5422 195.5,67C 189.459,64.1108 185.959,59.2775 185,52.5C 182.487,42.9683 179.987,33.4683 177.5,24C 178.271,17.0838 181.604,11.9171 187.5,8.5 Z"/></g>
<g><path style="opacity:1" fill="#755d84" d="M 80.5,70.5 C 85.777,69.9312 90.777,70.7645 95.5,73C 103.333,80.8333 111.167,88.6667 119,96.5C 124.534,105.376 123.367,113.21 115.5,120C 109.833,123.333 104.167,123.333 98.5,120C 88.5993,110.769 79.4326,100.936 71,90.5C 69.112,81.2925 72.2786,74.6258 80.5,70.5 Z"/></g>
<g><path style="opacity:0.999" fill="#755e84" d="M 20.5,177.5 C 34.4411,179.868 48.1078,183.368 61.5,188C 70.8333,196.667 70.8333,205.333 61.5,214C 58.6979,215.545 55.6979,216.378 52.5,216.5C 39.5614,213.932 26.8947,210.432 14.5,206C 6.86517,197.977 6.53184,189.644 13.5,181C 15.9252,179.787 18.2585,178.621 20.5,177.5 Z"/></g>
<g><path style="opacity:1" fill="#725b81" d="M 150.5,511.5 C 139.833,511.5 129.167,511.5 118.5,511.5C 60.5814,502.092 22.4147,469.426 4,413.5C 2.26914,406.41 0.769143,399.41 -0.5,392.5C -0.5,381.833 -0.5,371.167 -0.5,360.5C 3.14386,334.08 13.3105,310.413 30,289.5C 61.5,258 93,226.5 124.5,195C 127.736,192.132 131.236,189.632 135,187.5C 135.077,196.871 134.577,206.204 133.5,215.5C 134.311,223.477 135.144,231.477 136,239.5C 137.847,247.872 139.513,256.206 141,264.5C 120.667,284.833 100.333,305.167 80,325.5C 53.422,358.954 53.0887,392.621 79,426.5C 107.275,453.511 138.775,458.011 173.5,440C 178.661,436.334 183.661,432.501 188.5,428.5C 204.134,414.378 219.634,399.378 235,383.5C 235.464,382.906 235.631,382.239 235.5,381.5C 249.194,367.973 262.361,353.973 275,339.5C 295.486,302.082 290.486,268.415 260,238.5C 247.316,214.425 251.149,193.425 271.5,175.5C 325.145,203.76 350.645,248.427 348,309.5C 344.825,337.837 334.492,363.17 317,385.5C 285.167,417.333 253.333,449.167 221.5,481C 200.623,497.775 176.956,507.941 150.5,511.5 Z"/></g>
<g><path style="opacity:0.996" fill="#9665d9" d="M 428.5,188.5 C 428.631,189.239 428.464,189.906 428,190.5C 419.302,199.72 410.468,208.053 401.5,215.5C 410.167,206.167 419.167,197.167 428.5,188.5 Z"/></g>
<g><path style="opacity:0.996" fill="#9867da" d="M 400.5,216.5 C 394.595,223.911 388.095,230.911 381,237.5C 380.601,237.272 380.435,236.938 380.5,236.5C 386.833,229.5 393.5,222.833 400.5,216.5 Z"/></g>
<g><path style="opacity:0.999" fill="#755e84" d="M 453.5,294.5 C 459.654,294.215 465.654,295.049 471.5,297C 480.828,299.221 489.828,302.221 498.5,306C 503.628,313.375 503.794,320.875 499,328.5C 493.795,332.319 487.962,333.486 481.5,332C 470.247,329.438 459.247,326.104 448.5,322C 443.755,316.731 442.255,310.564 444,303.5C 446.406,299.592 449.572,296.592 453.5,294.5 Z"/></g>
<g><path style="opacity:1" fill="#745d83" d="M 427.5,405.5 C 429.167,409.167 431.833,411.833 435.5,413.5C 437.708,414.894 439.208,416.894 440,419.5C 441.242,437.261 433.409,443.428 416.5,438C 408,429.5 399.5,421 391,412.5C 386.309,401.904 389.142,394.071 399.5,389C 404.977,387.827 409.977,388.827 414.5,392C 419.037,396.369 423.37,400.869 427.5,405.5 Z"/></g>
<g><path style="opacity:0.996" fill="#a97bd4" d="M 235.5,381.5 C 235.631,382.239 235.464,382.906 235,383.5C 219.634,399.378 204.134,414.378 188.5,428.5C 203.833,412.5 219.5,396.833 235.5,381.5 Z"/></g>
<g><path style="opacity:0.831" fill="#6260fd" d="M 427.5,405.5 C 430.5,407.833 433.167,410.5 435.5,413.5C 431.833,411.833 429.167,409.167 427.5,405.5 Z"/></g>
<g><path style="opacity:0.999" fill="#755e85" d="M 307.5,442.5 C 313.944,442.065 319.11,444.399 323,449.5C 325.796,457.017 328.13,464.683 330,472.5C 331.976,478.387 332.976,484.387 333,490.5C 329.845,500.62 323.011,504.454 312.5,502C 309.438,500.939 306.938,499.106 305,496.5C 300.568,484.105 297.068,471.439 294.5,458.5C 295.235,450.11 299.569,444.777 307.5,442.5 Z"/></g>
</svg>
